<?xml version="1.0" encoding="utf-8"?>
<!-- Generator: Adobe Illustrator 24.0.1, SVG Export Plug-In . SVG Version: 6.00 Build 0)  -->
<svg version="1.1" id="图层_1" xmlns="http://www.w3.org/2000/svg" xmlns:xlink="http://www.w3.org/1999/xlink" x="0px" y="0px"
	 viewBox="0 0 512 512" style="enable-background:new 0 0 512 512;" xml:space="preserve">
<style type="text/css">
	.st0{clip-path:url(#SVGID_2_);fill:url(#SVGID_3_);}
	.st1{opacity:0.2;clip-path:url(#SVGID_2_);}
	.st2{fill:#FFFFFF;}
	.st3{clip-path:url(#SVGID_2_);}
	.st4{fill:#278497;}
</style>
<g>
	<defs>
		<path id="SVGID_1_" d="M405.1,512H106.9C47.9,512,0,464.1,0,405.1V106.9C0,47.9,47.9,0,106.9,0h298.2C464.1,0,512,47.9,512,106.9
			v298.2C512,464.1,464.1,512,405.1,512z"/>
	</defs>
	<clipPath id="SVGID_2_">
		<use xlink:href="#SVGID_1_"  style="overflow:visible;"/>
	</clipPath>
	<linearGradient id="SVGID_3_" gradientUnits="userSpaceOnUse" x1="480.691" y1="31.309" x2="31.309" y2="480.691">
		<stop  offset="0" style="stop-color:#CAF83F"/>
		<stop  offset="1" style="stop-color:#278497"/>
	</linearGradient>
	<path class="st0" d="M405.1,512H106.9C47.9,512,0,464.1,0,405.1V106.9C0,47.9,47.9,0,106.9,0h298.2C464.1,0,512,47.9,512,106.9
		v298.2C512,464.1,464.1,512,405.1,512z"/>
	<g class="st1">
		<path class="st2" d="M219.5,104.8c-5.5,3.5-11.6,3.9-17.4,6c-35.1,13-61.5,35.6-77,68.3c-16,33.6-9.8,61.2,19.5,78.3
			c7.9,4.6,16,9.1,24.6,12.8c25.4,11.1,38.3,31.3,43.7,57.7c4.6,22.3,3,45.6-0.4,69.3c-1.9,13-4.1,26-7.3,39
			c-4.9,20.2-14,39.6-24.3,58.8c-13.7,25.7-29.6,50.6-42.8,76.5c-4.7,9.3-8.2,18.7-8,28.3c0.2,9.5,5,14.1,14.6,15.3
			c9.6,1.2,19.2-0.6,28.7-4.6c28.3-11.7,54.6-27.4,78.7-46.9c28-22.7,52.6-48.5,75.5-75.7c23-27.3,45-55.2,66.1-83.6
			c24.6-33.2,53.5-63.4,80-95.2c17.8-21.4,36-42.4,56.3-61.9c21.7-20.7,45.8-38.5,70.2-55.9c15.1-10.7,31.3-19.8,46.2-30.9
			c0.6,0.8,1.2,1.6,1.8,2.4c-15.2,11-31.3,20.5-46.7,31.3c-16.2,11.4-32,23.3-47.4,35.6c-15.8,12.6-30.5,26.3-44,41.2
			c-15.3,16.7-29.8,34-44.6,51.1c-19.2,22.1-38.3,44.2-57,66.6c-8.9,10.6-16.5,22-24.9,32.9c-27,34.9-53.8,69.9-84.7,102.2
			c-18.9,19.8-39.1,38.5-61.8,54.3c-22.3,15.6-45.6,29.3-71,37.8c-9.7,3.2-19.3,3.5-27.9,1.1c-7.4-2.2-10.6-8.5-10.8-16.2
			c-0.3-10.9,3.7-21.6,9.5-32c14.7-26.3,30-52.5,44.3-78.9c9.4-17.4,17.3-35.3,21.6-53.6c5.5-23.6,9.6-47.3,10.4-70.7
			c0.8-22.5-2.5-43.6-12-62.6c-5.9-11.9-15.6-20-27.3-26.4c-12.1-6.7-24.7-12.5-36.2-20c-23.3-15.2-29-42.6-18.1-69.8
			c14.3-35.7,40.6-61.2,78.2-76C204.8,107.4,212,103.9,219.5,104.8z"/>
		<path class="st2" d="M190.8,536.6c-1.6-7.1,1-14.6,2.8-21.9c5.4-21.5,14.3-42.6,21.1-64c5.2-16.2,7.3-32.1,8-48
			c0.8-20,2.6-40.1,1.4-59.7c-1.1-17.7-3.7-34.9-12.6-49.6c-3.3-5.5-7.8-9.9-12.8-13.8c-11.1-8.8-23.8-15.5-37.3-21.1
			c-24.7-10.2-36.2-34.8-25-64.3c14.8-39,54.2-71.3,96-78.8c24.6-4.4,47.8-3.6,70.4,1.2c22.8,4.9,45.9,8.7,68.3,14.5
			c30,7.8,57.6,19.1,81.1,36.8c8.9,6.8,27.8,1.9,36.1-8.8c8.3-10.6,12.3-22.2,12.4-33.6c0.1-26.9,5.9-53.5,17.4-80.2
			c4.7-10.9,10.1-21.7,16-32.4c0.6,0.8,1.2,1.6,1.8,2.4c-9.6,16.4-17,33.3-22.9,50.5c-6.9,19.7-9.1,39.1-9.6,58.7
			c-0.5,15.7-5,31.5-21.6,43.3c-8.2,5.8-24,7.5-30.7,2.6c-26.6-19.7-57.8-31.8-92-39.4c-24.6-5.5-49.3-10.9-74.5-14.9
			c-25.3-4-51.6-1.3-77.7,9.1c-25.5,10.1-44.7,28.5-59.1,51.1c-9.4,14.7-14.5,30-12.7,45.6c1.6,14.3,9.7,24.1,21.3,31.1
			c7.3,4.4,15.7,7.1,23.3,11c10.9,5.7,20.7,12.4,28.8,21.1c10.1,10.7,14,24.8,16.4,39.5c3.7,22.6,1.6,46.3,0.8,69.8
			c-0.6,18.6-2.2,37.2-8.2,56.1c-5.2,16.1-11.2,32.2-16.6,48.3c-3.7,11.1-6.5,22.3-8.4,33.5C192.3,533.9,192,535.3,190.8,536.6z"/>
		<path class="st2" d="M655.3,172.2c-11.5,8.8-23,17.6-34.6,26.3c-37.2,27.8-72,58.1-103.4,91.8c-20,21.5-39.1,43.6-57.7,66.1
			c-35.4,43.1-67.4,88.2-101.8,131.9c-21.9,27.7-44.9,54.7-70.1,80.2c-18.9,19.2-39.2,36.8-61.4,52.1c-31.5,21.8-64.8,39-101.3,45.5
			c-9.7,1.7-18.9,1.5-27.6-1c-2.2-0.6-2.2-0.7-4.2-3.5c5-1.2,8.8,0.8,13,1.2c18.3,1.8,36.5-2.4,54.8-9.4
			c34.9-13.3,65.6-34.6,94.1-58.7c29.3-24.8,55.1-52.7,79.3-82c25.3-30.7,49.3-62.2,73.2-93.8c27.7-36.6,56-72.8,86.8-107.3
			c13.3-14.9,27.6-29.1,41.3-43.7c30.9-33,67.1-59.7,103.1-86.8c4.9-3.7,10.1-6.9,15.1-10.3C654.5,171.2,654.9,171.7,655.3,172.2z"
			/>
		<path class="st2" d="M662.5,181.7c-22.6,17.1-43.9,35.7-65.2,54.4c-34,30-66,61.6-95.3,95.6c-29,33.6-55.1,69.1-80.9,104.7
			c-28.8,39.8-57.4,79.7-90,117.3c-21.4,24.7-44,48.4-69.1,70.1c-28.5,24.7-58.7,46.5-92.2,63.4c-13.2,6.6-26.8,12.2-40.6,16.4
			c-1.2,0.4-2.7,1.2-4.2-0.5c6.5-2.5,12.6-4.9,18.7-7.2c28-10.9,54.2-25.7,79-43.7c39.9-28.8,73.9-63,105.8-99.5
			c35.8-41,66.7-84.8,98.4-128.2c21.5-29.5,43.5-58.9,67.2-87.1c14.9-17.7,29.6-35.6,46.2-52c20.1-19.8,40.4-39.4,61.7-58
			c19.1-16.6,38.2-33,58.5-48.1C661.3,180.2,661.9,180.9,662.5,181.7z"/>
		<path class="st2" d="M668.5,189.7c-20.4,16.9-39.7,34.9-59.2,52.7c-23.3,21.3-45.4,43.7-66.3,67c-25,27.9-47.6,57.3-69.4,87.1
			c-19,26-36.9,52.5-56.4,78.2c-12.4,16.4-23.8,33.5-36.5,49.7C347.4,566.7,313,608.2,272.3,645c-17.3,15.6-34.9,30.7-53.9,44.1
			c-22.6,16-46.1,30.6-71.8,42.6c0.9-3,3.1-3.7,4.8-4.6c28.8-14.9,56.6-31.9,82.3-52.2c35.2-27.7,67-58.7,96.1-92.2
			c19.2-22.1,37.6-44.7,55.1-67.9c24.6-32.6,48.2-65.7,71.8-98.9c31.4-44.3,64.4-87.6,102.6-127.7c25.9-27.1,52.7-53.3,81.5-77.8
			c8.8-7.5,17.4-15.3,26.6-22.4C667.7,188.6,668.1,189.1,668.5,189.7z"/>
		<path class="st2" d="M696.8,226.9c-15.1,16.8-30.5,33.5-45.3,50.6c-24.3,28-47.4,56.9-69.6,86.3c-20.6,27.3-40.9,54.8-61.2,82.3
			c-20.6,28-41,56.2-62,84c-14.3,19-28.9,37.9-43.8,56.6c-27.4,34.5-56.1,68-86.8,100.1c-20.6,21.5-42,42.3-64.4,62.2
			c-21.5,19.1-44.7,36.1-67.6,53.5c-0.4-0.5-0.8-1.1-1.2-1.6c44-31.7,84.6-67.2,122.2-105.8c28.5-29.2,55.3-59.6,80.9-91
			c22.1-27.1,43.6-54.6,64.4-82.6c30.4-41,60.2-82.2,90.7-123.1c23.9-32.1,47.8-64.1,73.7-95c20.7-24.7,41.9-49,63.7-72.9
			c1.6-1.8,3.4-3.4,5.2-5.2C696,225.8,696.4,226.4,696.8,226.9z"/>
		<path class="st2" d="M684.8,211c-23.1,22.9-44.8,46.9-65.8,71.3c-23,26.8-44.6,54.5-65.7,82.4c-27.8,36.7-54.7,73.9-81.7,111.1
			c-38.3,52.7-77.2,105-120.7,154.6c-27.8,31.8-57.4,62.1-90.2,89.5c-23.9,20-48.5,39.2-75,55.7c-1.1,0.7-2.1,2-3.9,1.3
			c0.8-2.2,2.9-3.2,4.6-4.3c25.6-16.1,49.4-34.5,72.5-53.9c29.7-24.8,56.5-52.2,82-80.5c34.4-38.2,65.8-78.3,96-119.2
			c25.5-34.6,50.6-69.4,76.1-104c28.1-38.1,56.3-76.2,86.7-113c25.1-30.5,51.4-60,79.4-88.3c1.4-1.4,3-2.7,4.5-4.1
			C684,210,684.4,210.5,684.8,211z"/>
		<path class="st2" d="M675.7,199.2c-13.3,12.5-26.9,24.8-39.9,37.6c-29.2,28.8-56.6,59.1-82.3,90.7
			c-28.5,35.2-54.2,71.9-80.1,108.5c-34.5,48.7-69.8,96.9-108.5,143.1c-30,35.9-62,70.2-97.5,101.7c-30.6,27.1-62.9,51.8-97.9,73
			c-1.4,0.8-2.7,2-4.6,1.5c0.2-2.5,2.5-3.2,4.3-4.2c28.1-16.3,53.7-35.9,78.8-56.6c34.2-28.1,64.6-59.5,93.7-92.1
			c20.4-22.9,39.6-46.7,58.3-70.7c30.3-39,58.5-79.1,87-119c18.9-26.5,37.6-53,58-78.6c13.3-16.6,27-32.9,41.5-48.8
			c10.9-11.9,21.7-24,33.1-35.6c15.9-16.2,31.9-32.3,49.5-47c1.9-1.6,3.5-3.4,5.2-5.1C674.9,198.1,675.3,198.6,675.7,199.2z"/>
		<path class="st2" d="M639.6,151.6c-15.7,9.9-32.2,18-48.6,26.3c-13,6.6-25.9,13.4-39.2,19.1c-21.1,9.2-37.6,23.8-52.1,41
			c-19.1,22.7-34.9,47.3-53.1,70.4c-16,20.3-31.8,40.8-48.4,60.8c-19.5,23.6-38.5,47.5-57.7,71.2c-17.8,22-35.5,44.2-56.8,63.7
			c-18.1,16.6-37.6,31.2-59.4,42.5c-8.2,4.3-16.7,6.9-25.3,5.9c-8.8-1.1-12.3-7.9-8.2-16.1c0.1,0.3,0.4,0.6,0.4,0.9
			c0.3,14.6,10.2,16,25,10.1c20.1-8,37.9-20.7,54.7-34.9c35.2-29.9,61.6-66.3,90.2-101c21.1-25.6,41.9-51.5,62.5-77.4
			c21.1-26.5,41.8-53.4,61.1-81c19.7-28,44.9-49.2,76.6-63.5c26.2-11.8,51.9-25.1,77.1-39.7C638.8,150.6,639.2,151.1,639.6,151.6z"
			/>
		<path class="st2" d="M712.5,247.5c-20.2,23.1-40.9,45.9-60.5,69.3c-21,25.2-41.4,50.8-61.5,76.6c-35.4,45.7-68.6,92.5-102.7,138.9
			c-18.4,24.9-37.8,49.3-57.6,73.4C401.1,641.2,371,676,339.9,710c-1.2,1.3-2.1,2.9-3.2,4.3c-0.6,0.5-1.3,1-1.9,1.5
			c-2-1.5-0.5-2.9,0.9-4.5c22.2-24.1,43.9-48.6,65-73.5c18.3-21.7,36-43.8,53.7-65.9c33.7-41.8,63.6-85.8,95.4-128.6
			c39.2-52.8,80-104.7,123.4-154.9c12.4-14.4,25.4-28.2,38-42.4C711.7,246.4,712.1,247,712.5,247.5z"/>
		<path class="st2" d="M728.1,268.1c-15.2,15.5-29.7,31.5-43.9,47.8c-26,29.6-49.7,60.7-73.2,91.8c-20.9,27.6-40.8,55.8-61.4,83.6
			c-19.1,25.9-38,51.9-58.2,77.2c-19.6,24.5-39.3,48.8-60.5,72.2c-1.1,1.2-1.7,2.6-2.6,3.9c-1,0.7-1.9,1.5-2.9,2.2
			c-1.2-3.1,1.6-5.2,3.5-7.3c14.5-15.6,28.1-31.8,41.3-48.2c25.5-31.6,50-63.7,73.7-96.3c26.6-36.4,53.9-72.5,80.7-108.8
			c21-28.5,43.6-55.9,67.4-82.6c11.3-12.7,22.6-25.2,34.8-37.2C727.3,267,727.7,267.5,728.1,268.1z"/>
		<path class="st2" d="M477-62.2c-6.3,7.1-14.2,12.2-21.8,17.6c-22.1,15.7-45.6,28.3-70.3,38.2C360.5,3.5,335.9,8.3,311,9.4
			c-38,1.7-69.7-9.8-99.7-25.2c-38.1-19.5-74.5-41.4-110-64.3c-1.2-0.8-2.7-1.5-3.1-3.7c4.8-0.1,7.3,2.9,10.2,4.7
			c18.6,12,37.6,23.5,56.7,34.9c24.6,14.8,50.5,27.7,77.2,39.6c13.8,6.1,29.1,9.3,45.1,10.7C339.5,11,389.1-5.5,437.5-35.6
			c13.5-8.5,26.3-17.8,38.3-28.2C476.2-63.3,476.6-62.7,477-62.2z"/>
		<path class="st2" d="M469.2-72.5c-24.8,19.6-51,36.6-80.1,48.2c-27,10.8-54.1,15.2-81.3,15.8c-27.4,0.6-52.8-3.9-76.4-13.1
			c-15.9-6.2-30.3-14.8-44.6-23.2c-24.7-14.4-49.1-29.1-73.6-43.7c-1.4-0.8-3.4-1.2-3.4-3.4c2.6-1.6,3.9,0.3,5.3,1.1
			c32.1,20.2,64.9,39.6,98.5,57.8c24.6,13.3,52.2,20.7,82.8,21.7c25.7,0.9,51.6-2.3,77.8-10.4c19.3-6,37.6-14.9,55.2-25.7
			c13.3-8.2,26.2-17.2,38.7-26.8C468.4-73.6,468.8-73,469.2-72.5z"/>
		<path class="st2" d="M454.8-91.5c-37.2,26.1-76.2,46.3-119.5,50.8c-26.9,2.8-52-1-76.6-6.4c-36.4-8-67.9-23.9-98.3-41.3
			c-8.7-5-16.9-10.7-25.3-16.1c-1.1-0.7-2.5-1.2-2-4c4.7,2.8,9.1,5.1,13.2,7.8c30.8,20.1,63.6,37.4,100.9,47.7
			c30.7,8.5,62.7,13.4,97.5,8.4c17.5-2.5,34.6-8,51.4-15.7c20-9.2,39.3-19.8,57.5-32.8C454-92.6,454.4-92,454.8-91.5z"/>
		<path class="st2" d="M448.7-99.4c-46,29.1-93.5,48.6-144.1,44.2c-33.5-2.9-64.7-11-94-23.2c-23.3-9.7-44.7-21.8-65.9-34.4
			c-0.9-0.5-1.7-1.1-2.4-1.8c-0.3-0.3-0.3-0.9-0.6-1.9c4.9,0.2,7.4,3.3,10.5,5.1c17.4,10.2,35.2,20,54,28.2
			c26.8,11.6,55.3,19.4,85.6,24.1c36.3,5.6,72.7-0.9,109.6-17.4c15.8-7.1,31.3-15,46-24.6C447.9-100.5,448.3-100,448.7-99.4z"/>
		<path class="st2" d="M526.8,569.8c-2-1.5-0.5-2.9,1-4.5c16.7-19.4,32.1-39.6,46.5-60.4c18.5-26.8,36.6-53.9,55.3-80.6
			c16.7-23.8,35-46.7,54.4-68.9c19.6-22.5,38.9-45.3,59.9-66.7c0.4,0.5,0.8,1.1,1.2,1.6c-20,22.2-40.1,44.3-59.6,66.9
			c-31,35.8-58.2,73.6-84,112.3c-19.5,29.2-39.6,58.1-61.9,85.9c-3.5,4.4-7.8,8.3-10.6,13.1C528.1,568.8,527.5,569.3,526.8,569.8z"
			/>
		<path class="st2" d="M442.7-107.4c-13.2,9.6-27.9,15.8-42.5,21.8c-26,10.8-52.4,17.4-78.8,16.8c-30.9-0.7-60.1-5.8-87.5-15.5
			c-19.8-7-38.6-15.6-56.3-25.7c-8.2-4.7-16.7-8.9-24.7-15c3.7-1.7,5.1,0.3,6.8,1.3c22.7,13.7,46,26.4,71.7,35.7
			c24.6,8.9,50.5,14.4,78.2,16.2c32.8,2.1,65.1-4.6,97.6-19.2c11.8-5.3,23.2-11.3,34.3-18C441.9-108.4,442.3-107.9,442.7-107.4z"/>
		<path class="st2" d="M525.8,1.9c-10.9,13.7-18.9,28.8-28.4,43.1C488,59.3,479,73.8,466.6,86.2c-15.8,15.9-34.3,23.9-55.6,26.4
			c-26.8,3.1-51.9,0.7-76.8-3.2c-17.1-2.7-34.2-5.6-51.6-7.4c-1.8-0.2-3.7-0.3-5-1.5c7.4-2.4,13.7,0,20.3,0.8
			c24.4,3,48.1,8.2,73,9.8c19.4,1.3,39.2,0.5,59.4-4.7c15.1-3.9,27.5-13.5,37.9-25.2c15.1-17,26.6-36,38.3-54.7
			c5.7-9,11.7-17.9,17.5-26.9C524.6,0.4,525.2,1.2,525.8,1.9z"/>
		<path class="st2" d="M436.7-115.3c-29,16.8-59.3,27-90.6,30.7c-43.5,5.2-82.4-2.2-117.9-18.8c-19.3-9-38.2-18.7-56.5-29.1
			c-1.5-0.9-3.7-1.3-4.1-3.7c2.8-1,4.1,0.8,5.7,1.7c24.8,13.6,49.5,27.4,77,37.1c49.8,17.6,102.6,16.8,159.1-6.7
			c8.9-3.7,17.4-8.5,26.1-12.7C435.9-116.3,436.3-115.8,436.7-115.3z"/>
		<path class="st2" d="M430.7-123.2c-24.4,12.2-49.5,20.9-75.3,25.5c-29,5.1-55.9,2.1-82.1-3.7c-25.8-5.7-49.6-15.1-72-26.6
			c-8.4-4.3-17-8.5-24.1-14.7c3-0.4,5.2,0.8,7.2,2.1c25.8,16,54.4,27.6,85,35.8c47.5,12.6,96.8,9,148-14.6c4-1.9,8.1-3.6,12.2-5.3
			C429.9-124.2,430.3-123.7,430.7-123.2z"/>
		<path class="st2" d="M425.9-129.5c-27.3,11.1-55,18.7-82.9,20.4c-21.1,1.3-41.1-1.2-60.7-5.3c-32.7-6.9-62.4-18.8-90.3-33.8
			c-1.5-0.8-3.8-1.1-3.8-4.5c6,2.8,11.6,5.3,16.9,8c29.2,15.2,61.1,25.3,95.4,30.9c39.4,6.4,79.6,0,120.4-16.5
			c1.1-0.4,2.1-1.2,3.2-1.7C424.7-131.1,425.3-130.3,425.9-129.5z"/>
		<path class="st2" d="M419.2-138.2c-35.7,13.5-71.2,19.6-106.3,16.4c-41.9-3.9-77.3-19.4-111.2-37.9c-0.4-0.2-0.6-0.7-1.1-1.2
			c2.4-1.4,3.8-0.1,5.1,0.6c16.4,8.5,33.1,16.6,50.9,23c28.3,10.3,58.4,15.7,91.4,13.2c23.6-1.8,46.8-7.8,70-15.6
			C418.4-139.3,418.8-138.8,419.2-138.2z"/>
		<path class="st2" d="M548.7,32c-4,8.6-5.5,17.3-5.4,25.7c0.1,23.4,2.3,46,10.3,67.1c9.9,25.9,27.5,27.4,53.9,20.9
			c7.4-1.8,14.6-5,22-7.5c0.6,0.8,1.2,1.6,1.8,2.4c-12.9,5-25.8,9-39.2,10.7c-20.9,2.6-34-5.8-40.5-22
			c-10.4-25.8-13.1-54.2-10.1-83.9c0.5-5.4,1.4-11.2,4.9-16.5C547.1,29.9,547.9,31,548.7,32z"/>
		<path class="st2" d="M763.6,314.8c-17.5,18.4-33.6,37.7-49.6,57.1c-11.1,13.5-22.1,27.1-32.5,41c-20,26.5-40.9,52.5-58.4,80.3
			c-0.9,1.4-1.4,3.2-3.8,4.1c-0.8-2.3,1.2-4.1,2.3-5.9c14.1-22.5,30.5-43.7,46.8-65.1c17.9-23.4,35.6-46.9,54.8-69.4
			c11.4-13.4,23-26.5,34.6-39.7c1.3-1.5,3-2.7,4.5-4.1C762.8,313.7,763.2,314.3,763.6,314.8z"/>
		<path class="st2" d="M407.2-154.1c-44.1,12.1-85.3,11.2-123.8-1.6c-18.6-6.2-36.3-13.9-53.4-22.6c-1.2-0.6-3.3-0.7-2.7-4
			c6.4,2.9,12.4,5.6,18.3,8.4c31.5,14.8,64.5,26.4,103,26.1c18.8-0.1,37.8-3.2,56.9-8.6C406-155.7,406.6-154.9,407.2-154.1z"/>
		<path class="st2" d="M277.6-29.5c7.7,0.5,15.6,0.6,23.1,1.5c27.6,3.4,55.4-2,83.4-13c22.1-8.6,43-19.9,63-33.4
			c4.5-3.1,9.3-5.8,13.6-9.2c0.4,0.5,0.8,1.1,1.2,1.6c-38.4,27.7-78.9,49.1-124.1,55.8c-19.6,2.9-38.3,1.5-56.6-1.3
			c-1.4-0.2-2.6-1-3.8-1.6L277.6-29.5z"/>
		<path class="st2" d="M400.6-162.8c-30.8,7.9-59.9,7.9-87.4,0c-22.4-6.4-44.9-12.7-65.7-22.1c-3.1-1.4-6-3-9.5-4.7
			c2.8-2.1,4.2-0.9,5.6-0.3c25.1,12.3,52.7,19.9,80.6,27c22.5,5.7,46.6,4.3,71.3-1.1c1.1-0.2,2.2-0.8,3.3-1.3
			C399.4-164.4,400-163.6,400.6-162.8z"/>
		<path class="st2" d="M352.8,53.3c4.3-2.1,8.7-2.1,13-2.8c44-7.1,81.3-29,114-61.6c6.9-6.9,13.9-13.6,20.1-21
			c0.6,0.8,1.2,1.6,1.8,2.4c-23.4,25.2-48.6,48.1-79.5,64.4c-21.2,11.2-43.1,16.2-65.3,19.6c-1.6,0.2-3,0.2-4.2-0.5L352.8,53.3z"/>
		<path class="st2" d="M509.6-19.4c-9,9.8-17.8,19.8-27.1,29.3C456.9,36.2,428,57.1,393,67.1c-11.6,3.3-23.2,5.1-34.8,5.9
			c-1.4,0.1-2.6,0-3.6-0.7l0.1-0.4c5.7-2.2,11.4-2,17-2.7c23.2-3.1,45-11.9,65.9-25c28-17.7,49.4-41.5,70.2-66
			C508.4-21,509-20.2,509.6-19.4z"/>
		<path class="st2" d="M485.5-51.1c-12.6,11.8-25.9,22.7-40.2,32.6C428.5-7,410.9,2.5,392.1,8.6c-19,6.2-38.2,11.4-57.5,13.8
			c-2.1,0.3-4.2,0.8-5.9-0.3l0.1-0.4c8.7-3.1,17.5-3.4,26.2-5.3c26.9-5.6,53.1-14.1,77.8-29.3c16.5-10.1,31.8-21.9,46.1-35
			c1.8-1.6,3.7-3.2,5.5-4.8C484.7-52.2,485.1-51.6,485.5-51.1z"/>
		<path class="st2" d="M391.5-174.7c-10.1,3.1-19.7,2.2-29.3,1.9c-38.6-1.2-73-11.7-105.4-26.4c-1.1-0.5-3-0.4-2.6-3
			c6.2,1,11,4,16.4,6.1c33,13,67.6,22.2,106.6,20.7c4.1-0.2,8.2,0,12.5-1.7C390.3-176.3,390.9-175.5,391.5-174.7z"/>
		<path class="st2" d="M350.9,34.8c10.2-2.4,20.5-4.5,30.7-7.3c23.3-6.3,45-17.1,65.2-31.8c16-11.6,30.8-24.6,45.2-38.1
			c0.4,0.5,0.8,1.1,1.2,1.6c-14.1,14.1-29.6,26.6-45.6,38.6c-24,17.8-49.9,29.3-77.7,35.1c-6.4,1.3-12.9,4-19.1,2.3L350.9,34.8z"/>
		<path class="st2" d="M518-8.3c-8.7,10.8-17.1,21.8-26.1,32.4c-13.4,15.9-28,30.9-45.4,43.1c-11.9,8.4-24.8,14.8-38.4,18.7
			c-2.1,0.6-4.2,1.4-6.1,0.4c0,0,0.1-0.4,0.1-0.4c6.5-2.5,13.1-4.7,19.5-7.4c23.1-9.8,41.4-26,58.1-44.1
			c11.5-12.5,22.2-25.5,32.1-39c1.4-1.9,3.3-3.5,5-5.3C517.2-9.4,517.6-8.9,518-8.3z"/>
		<path class="st2" d="M383.7-185c-10.2,2.6-19.5,1-28.9,0.1c-31.3-3.1-59.6-12.1-86.8-23.7c-0.9-0.4-2.1-0.5-2-2.2
			c2.3-1.4,3.8,0.1,5.4,0.7c14.5,5.8,29.2,11.3,44.6,15.5c19.4,5.2,39.5,8.4,60.8,8.1c1.7,0,3.4,0,5.1-1
			C382.5-186.6,383.1-185.8,383.7-185z"/>
		<path class="st2" d="M291.8-140.3c5.1-1.3,9,0.8,13.4,1.6c33.2,6.4,67.6,3.3,102.9-8.5c1.1-0.4,2.2-0.9,3.3-1.4
			c0.6,0.8,1.2,1.6,1.8,2.4c-33.2,10.6-66.1,16.9-98.1,11.4c-8-1.4-16.5-1.4-23.4-5.1L291.8-140.3z"/>
		<path class="st2" d="M783.5,340.9c-13.3,13.2-25,27.5-37,41.6c-12.7,15.1-25.2,30.3-37,46c-1.3,1.8-2.7,3.5-6.6,4.9
			c25.2-33.5,51.6-64.4,78.7-94.9C782.3,339.4,782.9,340.1,783.5,340.9z"/>
		<path class="st2" d="M573.4,64.5c-1.1,5,0.2,9.5,1.5,13.8c4.5,14.7,9.6,29.2,24.8,36.4c4.5,2.1,8.8,4.5,14.7,3.7
			c0.8,1.1,1.6,2.1,2.4,3.2c-10.5,0.4-19.7-2.3-26.3-8.6c-13.9-13.3-19.7-31.1-21.7-50.8c-0.1-1,0.3-2.1,0.5-3.2
			C570.6,60.8,572,62.7,573.4,64.5z"/>
		<path class="st2" d="M374.7-196.9c-7.3,0.8-14.2-0.3-20.8-1.4c-25.2-4.1-49-11.2-71.5-20.9c-0.9-0.4-2-0.7-2.2-2.3
			c2.9-1.2,4.5,0.5,6.4,1.3c25.3,9.8,51.4,18.1,80.1,20.9c2,0.2,4.1,0,6.1,0C373.5-198.4,374.1-197.6,374.7-196.9z"/>
		<path class="st2" d="M58.4,611.7c0.3-3.1,2.8-5.4,4.6-7.8c18.7-25.5,39.4-49.7,58.7-74.9c24.7-32.2,45.6-65.8,57.6-102.4
			c7.4-22.5,11.8-45,11.5-67.4c-0.2-15.8-0.1-31.6-7-45.1c-5.4-10.7-13.6-18.4-25.9-22.5c-14.1-4.7-27.9-10.2-41.3-16.1
			c-9.8-4.3-17.5-11.5-24.6-19c-5.6-5.9-11.8-11.2-19.2-15.2c-11.4-6.2-24-6.8-38.1-0.7c-24.6,10.5-46,26.1-65.9,44.3
			c-31.5,28.9-56.6,62.1-80.4,96.1c-1.7,2.4-1.7,2.4-5.2,4.6c3.2-6.5,7.8-11.5,11.5-17c18.6-27.4,39.6-53.2,63.8-77
			c18.7-18.4,39.1-34.4,62.2-46.9c27.7-15,44.7-14.6,64.8,1.9c7.2,5.9,13.8,12.6,20.6,19c4.2,3.9,9.2,6.8,14.7,9
			c11.7,4.8,23.3,9.8,35.5,13.7c21,6.7,31.5,21.5,35.8,41.8c4.4,20.8,1.7,42.8-1.3,64.7c-4.8,34.9-21,67.7-41.4,99.5
			c-23.7,37-52.7,70.9-80,105.8c-3.1,3.9-5.3,8.4-9.4,11.7C59.6,611.9,59.1,611.7,58.4,611.7z"/>
		<path class="st2" d="M47,596.7c4.9-6.7,10.7-11.8,16.1-17.2c21.3-21.8,40.7-44.9,58.4-69.2c20.1-27.5,38-56,48.9-86.7
			c11.2-31.7,15.2-62.8,7.6-92.3c-4.5-17.4-14.9-29.8-33.6-35c-9.9-2.7-19.1-6.8-27.9-11.4c-13-6.8-26.5-13.1-41.1-17.3
			c-26.5-7.8-52.9-2.3-79.7,14.7c-22.8,14.5-40.4,33.9-57.6,53.8c-15.3,17.8-28.4,36.8-42.9,55c-1.1,1.4-1.7,3.2-3.7,3.6
			c-1-0.3-0.8-1.1-0.3-1.7c17.8-23.6,34.9-47.8,55.1-69.9c11.8-13,24-25.8,38.6-36.2c16.5-11.8,33.8-21,53.2-24.3
			c18-3.1,33.7,0.5,48.8,5.9c12.4,4.4,23.8,10.3,35.3,16c8.2,4,16.6,7.5,25.6,10.2c11,3.3,19.5,9.4,25.2,18.5
			c10.5,16.5,12.1,36.2,11,56.8c-2.6,47.1-23.7,90.6-53.8,132.4c-23.5,32.6-49.3,63.7-79,92C50.2,595.4,49.5,596.8,47,596.7z"/>
		<path class="st2" d="M37,586.4c8.9-8.6,18-16.9,26.6-25.7c29-29.7,56-60.7,76-96c14.1-24.8,24.8-50.1,28.8-76.5
			c3.6-23.6,1.5-45.6-9.3-64.7c-8.4-14.9-24.2-21.5-40.9-26.7c-16.7-5.1-34.5-7.6-52-11.1c-6.1-1.2-12.1-2.5-18.8-2.6
			C28.6,283,12,291.4-4.2,302.4c-28.3,19.2-50.8,43.7-71.3,70c-6.5,8.4-12.8,16.9-19.1,25.5c-1.4,1.9-2.6,4-4.8,5.2
			c-1.5-1.3,0-2.5,0.7-3.4c19.8-27.4,40.3-54.3,66-77.6c13.9-12.6,28.9-23.7,45.6-32.5c16.1-8.5,32-10.5,47.5-7.7
			c18.4,3.4,36.7,7.2,54.7,11.4c11.8,2.8,22.7,7.2,32.3,13.9c13.7,9.6,19.8,23.9,23,39.9c6.5,31.9-2.2,64.4-17.5,96.9
			c-22.7,47.8-56.3,89.4-96.3,127.4c-6,5.6-11.4,11.9-18.5,16.2C37.7,587.1,37.3,586.7,37,586.4z"/>
		<path class="st2" d="M143.2,522.6c0.3-4.1,3.4-7.3,5.6-10.7c17.7-27.4,32.3-55.8,42.6-85.3c8.4-24.2,11-48.3,10-72
			c-0.5-12.7-0.9-25.3-4.4-37.1c-4.5-15-15.3-24.5-28.8-31.9c-11.4-6.3-23.7-11.1-35.7-16.4c-17-7.7-28.7-19.7-34.9-36.9
			c-3.2-8.9-6.5-17.6-10.9-25.9c-2-3.8-4.8-6.7-8-9.4c-3.2-2.6-7.5-1.8-11.7-0.1c-5.4,2.2-10.3,5.7-15.3,8.7
			c-27.5,16.8-54.4,34.4-79.4,54.8c-18.7,15.2-36.1,31.7-51.8,49.7c-3,3.4-5.5,7.2-10.5,10.2c1.4-4.9,4.9-7.6,7.5-10.5
			c25.5-28.8,54.8-53.7,86.5-75.9c18.8-13.2,38.2-25.7,58.1-37.1c11.5-6.6,17.5-5.6,23.8,3.3c7.3,10.4,11.6,22.5,16,34.5
			c6,16.6,19.1,26.4,34.9,33.5c13.5,6.1,27.4,11.5,39.9,19.3c15.6,9.7,23.7,24,25.9,42.2c3.2,27.5,3.1,55.7-4.7,84.7
			c-5.9,22.3-15.9,43.9-27.3,65.1c-6.7,12.6-14.1,24.9-21.9,37.1c-1.4,2.2-2.8,4.4-5,6L143.2,522.6z"/>
		<path class="st2" d="M29.5,577.9c4.1-5.9,9.3-9.8,13.9-14.1c31.3-29.4,59.1-61.4,82.4-96.2c20.3-30.3,32.7-62.1,32.6-95.2
			c-0.1-24.3-6.6-45.2-26.6-58.4c-9.6-6.4-21.5-9.2-33.9-11c-22.8-3.2-46.5-0.8-70.5,4.3c-13.6,2.9-26.2,9.3-38.1,17.5
			c-27.7,19.1-47.7,44.4-66.8,70.5c-4.2,5.8-8.4,11.7-12.6,17.5c-0.8,1.1-1.5,2.4-3.1,2.6c-0.9-0.3-0.8-1.1-0.3-1.7
			c17.7-24.8,35.5-49.6,57.8-71.6c23.1-22.8,49.4-36.6,80-40.5c26.5-3.4,52.2-4.2,75.7,4c18.5,6.5,30.4,18.9,36.2,36.6
			c10.8,33,3.2,67.5-14.4,102.2c-17.2,34.1-42.6,64-69.1,93.1c-11.4,12.6-23.7,24.4-36.2,36.1C34.8,575.2,33,577.2,29.5,577.9z"/>
		<path class="st2" d="M20.9-25.3c3.6-1.1,5.3,0.7,7.3,1.8C48.7-11.7,67.8,1.9,85.5,16.9c15.7,13.3,26.9,29.3,24.9,52.8
			c-1.6,18.9-10.4,35.8-23.5,51.7c-13.2,16.1-28.8,30.1-44.9,43.6c-26.6,22.2-52.9,44.7-81,65.1c-27.1,19.7-55.3,37.3-85.1,52.2
			c-18.2,9.1-33.3,7.9-46.9-1c-10.3-6.7-19.1-15.3-30.6-20.7c-3.2-1.5-7.2-1.6-10.2-3.6c1.1-2.2,2.4-1.5,3.5-1.2
			c6.6,1.7,12.7,4.2,17.9,8c5.7,4.1,11.7,8,17.1,12.5c15.1,12.2,32.5,12.7,53.5,1.4c22.3-12,44-25,65.2-39.2
			c23.6-15.8,45.4-33.9,67.3-51.9c18.9-15.5,38.3-30.5,55.3-48c15.7-16.2,30.6-33,36.8-53.9c7.1-23.9,1.7-43.3-13.7-58.3
			C71.5,7.3,48.9-8.5,24.5-22.3C23.2-23,21.4-23.3,20.9-25.3z"/>
		<path class="st2" d="M-85.5,426.2c2-6.3,7.2-10.9,11-16c12.3-17,25-33.7,40.7-48.5c36.2-34,76.8-51.3,122.2-48
			c27,2,47,13.6,57.6,36.2c5.2,10.9,4,23.6,1.8,36.4c-5.5,30.9-18.3,60.4-36.9,88.5c-17.9,27-39.3,51.6-64.7,73.2
			c-6.6,5.7-13.3,11.4-19.9,17.1c-1.2,1-2.3,2.5-4.3,1.8c0.2-2.5,2.5-3.8,4.3-5.2c31.7-24.5,58.5-52.9,80.4-85.2
			c16.5-24.3,28.7-49.7,35.6-76.3c3.7-14.2,6.7-28.6,3.4-42.1c-5.1-20.8-20.1-32.5-40.5-38.7c-24.8-7.5-51.4-4.4-78.5,5.8
			c-32,12-56.9,33.7-78.6,59.5c-10.3,12.2-19.5,25-28.8,37.7C-81.9,423.9-82.6,426-85.5,426.2z"/>
		<path class="st2" d="M34.4-35.2c3.1-1.2,4.1,0.1,5.3,0.9c24.3,14.5,46.6,31,64.7,52.1c8.5,9.8,17.3,19.3,22.1,31.6
			c8.4,21.7,4.6,43.9-11.9,66.2c-15.8,21.4-35.4,39.6-56.2,56.8C29,197-2.5,218.9-32.4,242.9c-22.9,18.3-46.2,36.3-66.2,57.7
			c-15.6,16.6-28.3,34.5-35,55c-0.4,1.3-0.6,3.7-2.4,3.5c-2.4-0.3-0.6-2.6-0.2-4c7.4-22.6,21.8-42.1,39.6-59.8
			c14.2-14.2,29.8-27.1,45.4-39.9c31.6-25.9,65-49.3,96.8-74.9c26.1-21,51.4-42.9,69.9-70.4c15.4-22.9,16.9-45,5.9-65
			c-13-23.8-33.1-41.7-54.7-58C57.5-20.1,48-27.1,37.3-32.5C36.3-33,35.6-34,34.4-35.2z"/>
		<path class="st2" d="M-227.7,239.6c2.8-1.8,5.3-0.9,7.8-1.2c20.1-2.1,38.9,0,56.4,5.8c18.7,6.2,38.4,4.8,59.2-2.9
			c29-10.8,56.5-24.9,82.7-42.8c38.8-26.7,71.2-58.7,97.7-96.2c7.1-10,13.8-19.9,14.7-31.5c1.1-15.1-5.1-26.3-14.2-36.2
			C60.5,17.1,41.8,2.8,21.3-9.7c-3.6-2.2-8.3-3.2-11.1-7.4c3.7-0.6,5.4,1.3,7.3,2.4C43.9,0,67.5,17.6,85.1,41.3
			C96.9,57.1,96.3,77,83,96.5c-20.5,29.9-44.7,56.9-73.4,80.9c-24.5,20.5-50.7,37.7-78.9,51.7c-17.9,8.9-36.4,16.4-55.4,20.5
			c-12.6,2.8-24.7,1.8-35.7-1.7c-19.1-6.2-39.1-9.6-61-7.1C-223.5,241-226.1,241.9-227.7,239.6z"/>
		<path class="st2" d="M-76.5,438.6c3.9-7.4,8.8-13.4,13.3-19.6c15.4-21.4,32.2-41.9,53.6-58.9c26-20.5,54.2-30.1,84.4-31.6
			c16-0.8,30.2,2.7,43,9.5c13.1,7,16.1,19.6,16,34c-0.3,42.5-17.5,81.7-48,118.6c-20.4,24.7-44.3,46.1-69.2,66.6
			c-0.4,0.3-1.1,0.3-1.7,0.5c-1-2.1,1-3.1,2.2-4.1c14.9-11.4,28.8-24,42-37.2c25.7-25.8,47.9-53.8,60.9-86.1
			c9.1-22.5,12.4-45.1,10.6-67.1c-1-12-7.8-20.7-19-25.3c-32.5-13.3-67.1-7.7-101.8,12.1c-20.4,11.6-37.2,28.3-52.2,46.3
			C-52.9,409-62.8,422-72.3,435.4C-73.1,436.5-73.6,437.8-76.5,438.6z"/>
		<path class="st2" d="M-2.9-6.4c2.3-1.4,3.4,0.3,4.8,1.1C23.7,6.2,44.3,19.3,60.8,36.8c13.1,14,18.9,37.5,4.7,61.6
			c-10.6,18-25.6,32.8-40.7,47.5c-22.4,21.9-47.1,40.6-75,55c-30.3,15.6-61.4,21.5-92.7,23.3c-29.3,1.7-57.9-0.4-87.4,2.8
			c-1.5,0.2-4.1,1.2-3.8-1.2c0.3-1.7,2.6-1.3,4-1.4c20.6-2.1,40.7-2,60.9-1.9c24.7,0.2,49.7-1.8,75-7.7C-70,209.1-47.6,198-26,184
			c30.1-19.5,55.4-44,78.3-70.9c17.2-20.2,23.6-41,14.6-61.8c-3.3-7.5-8.3-14.1-14.6-19.3C35.7,18.4,18.1,5.9-1.5-4.1
			C-2.3-4.5-3.5-4.8-2.9-6.4z"/>
		<path class="st2" d="M-7.4,525.9c6.4-3.9,12-7.3,17.6-10.6c18-10.7,32.8-24.8,46-40.5c18.1-21.4,30.8-44.5,35-69.9
			c1.5-8.7,2.3-17.4-2.3-24.5c-6.4-9.7-22.2-12.7-38.4-7.6c-23,7.2-42.2,20.6-58.7,38.6c-16.1,17.5-28.2,36.8-38.4,57.1
			c-0.3,0.5-0.4,1.1-0.7,1.6c-0.7,1.2-1.4,2.8-3,2.2c-1.3-0.5-0.1-1.8,0.3-2.9c4-8.8,8.8-17.4,14-25.8c13.2-21.5,29.4-40.8,51-55.9
			c14.2-9.9,29-18.1,45.7-20c18.2-2.1,33.3,6.1,34.9,20.5c1.1,9.5-1.4,19.6-4.5,29.6c-9.3,30.2-28,56.2-52.8,79
			c-11.8,10.9-24.9,20.5-39.4,27.7C-2.7,525.4-4.4,526.9-7.4,525.9z"/>
		<path class="st2" d="M-160.5,203.5c10.1-3.5,20.2-3.5,30.1-4.4c29.4-2.7,58.3-9.4,86.4-23.8c26.3-13.4,50.5-29.6,69.3-52.7
			c13.5-16.5,22.2-34.1,22.1-53.4c-0.1-13.9-6.7-24-16.2-32.3C18.1,25.5,3.4,16-12.8,8.2c-1.7-0.8-3.2-1.9-5.1-3.1
			c2.5-1.6,4-0.6,5.4,0C7.7,15.7,27.3,26.7,41.4,44.3c10.6,13.3,10.9,29.3,5,46.9c-6.5,19.3-19.4,35.4-35.5,49.9
			C-18.8,167.7-52.6,185-89.5,195c-16.6,4.5-33.1,5.3-49.7,7.4c-7.2,0.9-14.5,2.8-21.5,1.6L-160.5,203.5z"/>
		<path class="st2" d="M352.7,53.8c-4.8,2-9.5,1.8-14.2,2c-30.4,1.2-59.7-1.8-89.7-2.4c-14.5-0.3-28.7-1-40.5-7.5
			c-13.9-7.7-26.9-16.5-38.5-26.8C139-8.7,109.3-37.6,71.2-57.5c-1.3-0.7-2.4-1.7-4.5-3.1c4.4-0.8,6.4,1,8.5,2.2
			c28.7,16,53.7,36,76.9,58.1c16.6,15.9,34.3,30.7,54.8,42.3c7.8,4.4,16.4,7.5,26.1,7.8c34.5,1.4,68.5,4.3,103.5,3.6
			c5.4-0.1,11.1-1.8,16.1-0.2C352.8,53.3,352.7,53.8,352.7,53.8z"/>
		<path class="st2" d="M-235.9,169.4c8.8,0,16.4,0,24,0c30.8-0.2,61.9-2.8,93.3-9.8c27.4-6.2,53.5-17.4,78.2-33.2
			c8-5.1,15.4-10.5,21.8-17.5c18-19.7,12.1-42,1-53.6c-9.2-9.6-21.8-15.1-34.4-20.5c-1-0.4-2.7-0.2-2.6-2c1.9-1.7,3.2-0.5,4.5,0.1
			c12.8,5.1,25.1,10.8,34.3,20.6c15.9,17,17.1,44.3-9.8,65.1c-22.4,17.3-47.1,29.6-73.3,38.1c-29,9.3-57.9,12.3-86.7,14.3
			c-14.8,1-29.4,1.6-43.9,0.9C-231.4,171.7-233.7,172.2-235.9,169.4z"/>
		<path class="st2" d="M-162.4,185c12.8-3.9,25.5-4.4,38.2-5.8c32-3.6,63.1-13,92.2-31.3c16.5-10.4,32.6-22.2,44.6-37.6
			c16.5-21.2,16.5-38.5,0-56.5C-0.1,39.8-14.8,28-32.2,19.1c-0.8-0.4-1.5-0.9-1.2-2c1.8-1.5,2.9-0.3,3.9,0.3
			c14.7,8.1,28.6,17.1,39,29.7c3.4,4.1,7.4,7.6,10.5,11.9c11.7,16.2,9.6,34.7-6.3,53.2c-19.8,23.2-44.4,39.6-72,51.9
			c-27.9,12.4-56.2,17-84.7,19.6c-6.6,0.6-13.4,3.2-19.7,1.6L-162.4,185z"/>
		<path class="st2" d="M350.9,35.1c-2.7,1.7-5.5,2-8.4,2.3c-29.6,2.9-58,0.2-86.7-0.6c-15.1-0.4-28.2-4.3-40.1-11.8
			c-40-25.2-78.8-51.7-117.8-78c-5.6-3.8-11.4-7.3-17-11.1c-1.3-0.9-3.4-1.1-3-3.7c2.8-0.7,3.9,1.2,5.5,2.2
			c38.2,25.4,76.3,50.9,114.6,76.3c8.9,5.9,18.1,11.3,27.2,16.9c5.3,3.2,11.4,5.1,18.1,5.5c33.9,2.1,67.6,5,102.8,1.4
			c1.7-0.2,3.3,0.1,5,0.2C350.9,34.8,350.9,35.1,350.9,35.1z"/>
		<path class="st2" d="M328.6,22.1c-5.9,3-11.7,2.2-17.5,2.6c-34.8,2.2-65.5-5.4-94.1-18.6c-28.7-13.3-54.6-30-79.7-47.8
			c-14.7-10.4-29.3-20.8-44-31.2c-1.3-0.9-3.2-1.4-2.8-4.1c4.8,0.8,7.4,4.2,10.6,6.5c21.3,14.6,41.8,29.9,63.4,44.1
			c29.5,19.5,60.7,36.7,97.4,45.2c18.7,4.3,38.8,4.3,59.1,2.8c2.6-0.2,5.4-0.9,7.7,0.1C328.7,21.6,328.6,22.1,328.6,22.1z"/>
		<path class="st2" d="M242.8,87.3c-2.6,1.3-5.3,1.4-7.9,1.4c-20.1,0.4-40.4,1.9-60.7,4.5c-9.4,1.2-16.6-3.6-18.9-12.4
			c-5.7-21.7-14.9-41.6-28.3-58.8c-20.3-25.7-46.4-45.5-75.7-62c-1.7-1-3.9-1.5-4.6-3.7c1.9-1.7,2.8-0.3,3.9,0.3
			c26.4,14.8,50.5,32,70.2,54.1c17.9,20.1,30.4,43.3,37.3,70c1.7,6.7,8.7,11.1,16.7,10c21.2-2.9,42.1-4,63-4.9
			c1.9-0.1,3.8-0.1,5.2,1L242.8,87.3z"/>
		<path class="st2" d="M265.3,69.6c-5.9,1.5-11,1.1-16.2,1.5c-13.9,1.1-27.6,1.5-40.8-0.3c-12.6-1.7-22.7-6.6-30.2-15.9
			c-14.7-18.3-31.4-35-49.3-50.6C106.8-15,82.5-31.7,58-48.1c-0.9-0.6-2.3-0.9-2.3-2.7c2.6-0.9,4.1,0.6,5.7,1.6
			c35.4,22.6,68.3,47.9,97.1,77.5c6.8,7,13.8,13.9,19.4,21.9c9.5,13.5,24,18.6,42,18.9c13.6,0.2,27.4-0.4,41.2-1.2
			C262.5,67.9,264.2,67.3,265.3,69.6z"/>
		<path class="st2" d="M61.2,346.5c15.2-2.9,28.4-2.5,39.2,4.7c15,10,18.7,25.9,16.1,44.2c-5.3,38-26.6,71.2-54.8,101.8
			c-15.5,16.8-32.7,32.1-51.6,45.6c-1.2,0.8-2.4,1.6-3.6,2.3c-0.2,0.1-0.6-0.1-1-0.2c0.5-2.3,2.8-3.2,4.5-4.5
			c23-17.2,44.1-36.2,62-58.3c21.2-26.1,36.9-53.9,41.7-84.5c3.1-19.6-0.5-36.4-17.9-45.9c-8.1-4.4-17.6-4.9-27.7-3.8
			C65.9,348,63.5,348.9,61.2,346.5z"/>
		<path class="st2" d="M-82.8,54.3c1.1-1.2,2.2-0.9,3.1-0.4c12,5.8,20.9,14.7,27.3,25.8c1.5,2.5,1.5,5.5,0.6,8.7
			c-3.8,14.6-14.6,24.3-27.9,32.1c-16.5,9.6-34.1,13.9-51.7,17.6c-20.1,4.2-40,6.6-59.6,5.4c-2.5-0.2-5.1-0.1-7.7-1.7
			c4.2-2,7.4-1,10.5-0.9c32.3,1.1,64.6-4.7,97-17.2c10.1-3.9,19.4-9.6,26.9-17.4c12.8-13.3,12.5-26.4,0.1-37.9
			c-4.8-4.4-9.6-8.8-15.9-11.5C-81.2,56.3-82.9,56.1-82.8,54.3z"/>
		<path class="st2" d="M277.5-29c-4.4,1.2-8.2-0.1-11.9-0.9c-37.6-8-71.3-22.5-102.4-41.4c-13.2-8-26.2-16.3-39-24.8
			c-1.4-0.9-3.6-1.4-3.4-4.5c4.9,1.4,8.3,4.3,11.9,6.8c25.9,17.5,52.8,33.7,82.6,45.8c18.2,7.3,37,13.6,57.3,16.8
			c1.7,0.3,3.3,1.1,4.9,1.7C277.6-29.5,277.5-29,277.5-29z"/>
		<path class="st2" d="M242.9,86.8c4.6-1.4,9.1-1.4,13.6-1.2c34.8,0.8,69.5,1.9,104.4,2.4c12.1,0.2,24.2,0.5,36.8-2.2
			c1.5-0.3,3.1-0.6,4.4,0.1c0,0-0.1,0.4-0.1,0.4c-7.7,4.5-15.5,3.8-23,4c-37.3,0.7-74-1-110.9-1.9c-5.4-0.1-10.8,0.1-16.2,0.1
			c-3.1,0-6.5,0.5-9.1-1.1C242.8,87.3,242.9,86.8,242.9,86.8z"/>
		<path class="st2" d="M21.1,424.1c7.8-5.7,13.6-10.3,21.1-10.2c5.3,0,7.9,2.4,7.9,7.4c0.2,16.7-17.7,39.3-35.3,44.9
			c-7.3,2.3-12.4-0.6-12.4-7.4C2.4,444.3,10,432.5,21.1,424.1z M24.6,424.1C13.8,432.7,6,442.5,5,455.3c-0.7,8.3,2.6,10.5,11.5,7.5
			c15.1-5.1,31.6-27,31-41.2c-0.2-4.8-3.5-5.7-7.9-5C34.1,417.6,29.2,420.3,24.6,424.1z"/>
		<path class="st2" d="M37.2,355.3c-46.9,20.9-76.1,57.8-101.3,98.5C-60.2,426.3,10.6,357.4,37.2,355.3z"/>
		<path class="st2" d="M143.5,522.7c-1.6,6.8-6.8,12.2-10.7,18c-13.5,20.5-29.3,39.9-41.4,61.1c-6.2,10.8-11.1,21.8-14.4,33.2
			c-0.3,1,0,2.2-2,2.9c-1.7-2-0.2-4.6,0.6-6.9c6.9-21.7,19.8-41.4,33.7-60.7c10.1-14.1,19.7-28.4,29.5-42.6c1.3-1.8,2.6-3.5,4.4-4.9
			C143.2,522.6,143.5,522.7,143.5,522.7z"/>
		<path class="st2" d="M-162.5,185.4c-7.4,3.5-14.8,2.8-22.1,3.9c-21,3-41.8,4.1-62.4,4.1c-5.5,0-10.9-0.8-16.4-1.2
			c0.6-2.4,2-2.3,3.2-2.2c29.8,2.2,60.4-1.2,91.1-5.2c2.3-0.3,4.6-0.8,6.6,0.2C-162.4,185-162.5,185.4-162.5,185.4z"/>
		<path class="st2" d="M291.7-139.8c-3.6,0.8-6.6-0.6-9.6-1.3c-24.6-5.6-47.6-14.1-68.7-25.8c-0.8-0.5-2.1-0.6-1.9-2.1
			c2.2-1.5,3.5,0,4.8,0.7c21.8,11.8,45.4,20.6,71.1,25.7c1.8,0.4,3.3,1.2,4.5,2.4C291.8-140.3,291.7-139.8,291.7-139.8z"/>
		<path class="st2" d="M-160.6,204c-12.6,3.1-25,3.4-37.5,4.6c-15.5,1.5-31,2.4-46.5,3.5c-1.5,0.1-2.9,0-5.1,0
			c2.5-2.8,5.1-2.6,7.2-2.7c25.6-1.1,51.4-4.2,77.1-6.5c1.7-0.2,3.4-0.3,4.8,0.5C-160.5,203.5-160.6,204-160.6,204z"/>
		<path class="st2" d="M293.9-232.4c21.2,7.2,42.6,14.3,66.6,18.9C352.5-210.6,305.7-223.9,293.9-232.4z"/>
		<path class="st2" d="M354.5,72.3c-7.2,3-13.9,1.3-20.7,1.3c-12.6,0-25-1.1-37.5-1.8c-1.2-0.1-2.3-0.6-4.2-1.2
			c3.3-2.3,5.7-1.5,8-1.3c16.9,1.7,34.2,2,51.5,1.9c1.1,0,2,0.5,3.1,0.7C354.6,71.9,354.5,72.3,354.5,72.3z"/>
		<path class="st2" d="M265.3,100.3c-4.8,1.5-9.4,1-14,1.3c-8.8,0.6-17.6,1.9-26.5,3.3c-1.9,0.3-3.8,1-5.4-0.1
			c5.4-3.6,11.1-3.2,16.8-4.1c7.8-1.2,15.5-1.7,23.1-1.9C261.6,98.8,263.9,98.6,265.3,100.3z"/>
		<path class="st2" d="M436,260.2c0.8,8.1-3.3,16.1-6.2,24c-11.9,32.1-33.1,60.2-56.7,87c-20.5,23.3-41.9,46-63.8,68.3
			C297.4,451.6,284,462,268,468.1c-11.9,4.6-19.5,2.1-23.5-7.9c-4.3-10.8-4.1-23-4.6-34.9c-1.2-27.7,1.1-56.2-1.2-83.7
			c-1.8-22-7-42.5-20.9-58.8c-7.7-9.1-18.3-15-28.1-21.8c-11.9-8.3-23.5-16.7-31.9-28.5c-10.9-15.3-10.5-32.3,2.3-51.1
			c21-30.8,49.8-47.9,85.1-53c30.5-4.4,57.4,1.1,82.2,12.4c13,5.9,26.7,10.8,39.2,17.6c17.2,9.4,31.3,21.8,41.6,38.1
			c8.7,13.7,15.9,28.4,24.8,42C436.9,244.5,439.9,251.5,436,260.2c-1.7-7.6-1.6-15.9-6.3-22.3c-7.4-10.2-12.6-21.8-19.1-32.6
			c-8.5-14.2-18.8-26.8-32.6-36.4c-18.7-13.2-41.1-21-62.6-30c-18.9-7.9-40.2-10.2-62.7-8.6c-36.3,2.6-66.2,19.1-89.1,49.8
			c-14,18.7-14.5,36.2-3.1,52c8.6,11.9,20.9,19.9,33,28.2c9.8,6.8,19.9,13.3,27.4,22.5c11.2,13.8,16.9,30.4,19.4,48.7
			c2.7,20.3,2.2,41.3,1.9,62.2c-0.2,20.1,0.1,40,2.8,59.4c1.9,13.8,10.5,18.2,25.3,11.9c14.1-6,26.4-15.3,37-26.3
			c26.6-27.8,53.7-55.3,77.9-84.9c21.5-26.3,38.4-54.3,47.6-85C433.6,265.7,433.5,262.7,436,260.2z"/>
		<path class="st2" d="M228,148.2c7.1-4,14.5-4,21.5-4.6c22.3-2,42.6,1.7,60.5,10.8c26.9,13.5,49.4,31.9,67.3,54.8
			c9.4,12.1,13.4,27,17,42.2c3,12.7,3.5,25.6-0.2,39.4c-5.7,21.4-16.9,41-31.9,59.3c-14.8,18-32,33.7-51.1,47.6
			c-21.6,15.7-44.1,10.7-50.8-10.5c-6.5-20.4-11.3-41.2-13.5-63.1c-1.2-11.8-2.5-23.5-7.6-33.8c-7-14.2-18.2-24.7-31.2-33.7
			c-9.2-6.4-19.1-11.7-29-17c-9.6-5.1-14.8-17.4-11.8-25.2l0.5,0c0.4,1.5,1,2.9,1.2,4.4c1.2,9,5.8,15.7,13.9,19.7
			c11.3,5.5,21.9,11.9,31.6,19.3c17,13,30.4,28.7,33.1,51.2c3,24.1,5.8,48.2,13.2,70.7c2,6.1,3.5,12.5,7.8,17.2
			c9.4,10.4,26.5,9.8,41.5-1c23.5-16.9,43.5-36.8,59.8-59.8c11.4-16.1,20-33.3,22.9-51.3c4.4-28.2-2.9-52.5-17.2-73.3
			c-15.9-23-38.4-40-63.9-53.2c-21.7-11.2-46-16.3-74.1-10.4c-3.1,0.7-6.5,1.8-9.5,0.7L228,148.2z"/>
		<path class="st2" d="M167.1,214.4c-2.5-9.2,2-18.2,7.2-26.6c11.1-17.8,27.2-30.3,46.9-38.3c2.2-0.9,4.5-1.7,6.7-1.4
			c0,0-0.1,0.4-0.1,0.4c-2.5,1.3-5,2.6-7.6,3.8c-20.1,9-36.2,21.9-46.6,41.2c-3.7,6.9-4,13.9-6.2,20.9L167.1,214.4z"/>
		<path class="st2" d="M262.9,161.6c11.4-0.2,20.9,3.7,29.8,8.2c16.4,8.3,30.3,19.4,42.6,32.5c15.1,16,25,35,29.5,57.1
			c6.4,31.4-4.3,60.4-31.8,86.8c-5,4.8-10.4,9-16.5,12.5c-16.3,9.3-29.2,8-39.2-3.6c-9.1-10.5-12.9-23.5-15.3-37.3
			c-1.8-10.3-3.8-20.6-6.1-30.7c-4.3-18.8-15.8-31.7-33-40c-8.8-4.3-17.5-8.8-25-14.7c-6.9-5.4-12.9-11.7-12.5-21.8
			c0.2-4.9,0.7-9.7,5.2-13.9l0.3,0c-0.2,1.3-0.2,2.6-0.7,3.8c-5.1,12.1-1.3,20.6,6.7,27.5c7.8,6.7,16.9,11.7,26.4,16.2
			c20.9,9.8,32.6,26.2,36.8,48.5c2.5,13.3,5.3,26.6,8.2,39.7c1.8,8.1,5.5,15.2,11.1,21.1c10,10.7,20.6,12.1,37.5,2.4
			c4.8-2.8,9-6.2,13-10c21-19.8,34.2-42,33.9-67.9c-0.3-26.4-9.5-48.4-25.2-67.4c-15.5-18.7-34.1-33.8-58.2-43
			c-5.7-2.2-12.5-2.2-17.6-5.4C262.8,162,262.9,161.8,262.9,161.6z"/>
		<path class="st2" d="M190.6,196.6c-0.2-4,3.2-6.9,5.6-9.9c15.5-18.5,38.7-28.2,60.5-26.8c2.1,0.1,4.1,1.1,6.1,1.6
			c0,0.2-0.1,0.4-0.1,0.5c-2.1,0.8-4.1,0.7-6.1,0.5c-15.9-1.3-31,3.3-45.6,13.4c-8.3,5.7-14,13.3-20.1,20.6L190.6,196.6z"/>
		<path class="st2" d="M220.9,203.8c0-7.2,8.8-15.5,17.9-16.8c14.6-2.1,27.2,0.9,37.4,8.4c17.9,13.2,34,28.2,45.9,46.8
			c10.7,16.7,14.5,35.6,3.9,57.8c-2.8,5.8-7.1,10.1-12.7,13.3c-7.1,4.2-15.4,3.1-20-2.2c-9-10.2-11.8-23.5-13.8-36.9
			c-2.4-15.6-10.4-27-22.7-35.7c-10.1-7.1-21.1-12.8-31.7-19.2C218.9,215.7,217.4,209.8,220.9,203.8c-0.3,9.4,5.2,14.4,13.2,17.6
			c2.1,0.8,4,2,5.8,3.2c10.5,6.3,21.1,12.4,29.5,21.1c9.4,9.7,11.9,22.8,14.2,36.1c1.7,9.5,4.7,18.4,10.3,26
			c7.5,10.3,20.9,5.3,27.2-4.6c5.1-7.9,7.9-16.2,8.3-24.9c0.8-16.1-5.6-28.8-13.8-40.6c-8.7-12.6-20.9-22.2-31.8-32.9
			c-7.2-7-15.7-12.2-26.1-14.5C238.4,186.2,229.9,189,220.9,203.8z"/>
	</g>
	<g class="st3">
		<g>
			<path class="st4" d="M193.8,287.3c-2.7-6.6-4.2-13.8-4.2-21.3c0-9,2.2-17.6,6-25.1c-7.7,0.2-15.8,0.6-23.2-0.7
				c-21.3-3.5-37.3-22.5-37.3-44c0-35.8,31.6-44.6,60.5-44.6h134.7c-3.5-7.3-5.4-15.4-5.4-24c0-8,1.7-15.6,4.7-22.5H213.9
				c-25.9,0-51.8-2-75.8,10.1C92.9,137.8,75.8,196,99.8,240C119.5,276,155.5,287.3,193.8,287.3z M246,226.8
				c-12,0-22.7,5.4-29.9,13.9c-5.8,6.8-9.2,15.6-9.2,25.2c0,7.9,2.4,15.2,6.4,21.3c7,10.7,19.1,17.8,32.8,17.8
				c13.7,0,25.8-7.1,32.8-17.8c4-6.1,6.4-13.5,6.4-21.3c0-9.6-3.5-18.4-9.2-25.2C268.7,232.3,258,226.8,246,226.8z M381.3,88.4
				c-13.2,0-24.9,6.6-32,16.6c-4.5,6.4-7.2,14.1-7.2,22.5c0,9.1,3.1,17.4,8.3,24c7.2,9.2,18.3,15.1,30.9,15.1
				c21.6,0,39.2-17.6,39.2-39.2C420.4,106,402.9,88.4,381.3,88.4z M297.8,240.8h-1.4c3.8,7.6,6,16.1,6,25.2c0,7.5-1.5,14.7-4.2,21.2
				c7.7-0.2,15.7-0.3,23,1.6c20.4,5.2,35,24,35,45.1c0,35.6-31,46.5-60.5,46.5h-134c3.5,7.3,5.4,15.4,5.4,24c0,8-1.7,15.6-4.7,22.5
				H278c26.7,0,52.9,1.6,77.2-11.9c43.6-24.2,59.6-80.7,36.7-124.6C373,254.1,336.5,240.8,297.8,240.8z M110.7,365.3
				c-21.6,0-39.2,17.6-39.2,39.2c0,21.6,17.6,39.2,39.2,39.2c13.2,0,24.9-6.6,32-16.6c4.5-6.4,7.2-14.1,7.2-22.5
				c0-9.1-3.1-17.4-8.3-24C134.4,371.2,123.3,365.3,110.7,365.3z"/>
		</g>
	</g>
	<g class="st3">
		<g>
			<path class="st2" d="M203.8,277.3c-2.7-6.6-4.2-13.8-4.2-21.3c0-9,2.2-17.6,6-25.1c-7.7,0.2-15.8,0.6-23.2-0.7
				c-21.3-3.5-37.3-22.5-37.3-44c0-35.8,31.6-44.6,60.5-44.6h134.7c-3.5-7.3-5.4-15.4-5.4-24c0-8,1.7-15.6,4.7-22.5H223.9
				c-25.9,0-51.8-2-75.8,10.1C102.9,127.8,85.8,186,109.8,230C129.5,266,165.5,277.3,203.8,277.3z M256,216.8
				c-12,0-22.7,5.4-29.9,13.9c-5.8,6.8-9.2,15.6-9.2,25.2c0,7.9,2.4,15.2,6.4,21.3c7,10.7,19.1,17.8,32.8,17.8
				c13.7,0,25.8-7.1,32.8-17.8c4-6.1,6.4-13.5,6.4-21.3c0-9.6-3.5-18.4-9.2-25.2C278.7,222.3,268,216.8,256,216.8z M391.3,78.4
				c-13.2,0-24.9,6.6-32,16.6c-4.5,6.4-7.2,14.1-7.2,22.5c0,9.1,3.1,17.4,8.3,24c7.2,9.2,18.3,15.1,30.9,15.1
				c21.6,0,39.2-17.6,39.2-39.2C430.4,96,412.9,78.4,391.3,78.4z M307.8,230.8h-1.4c3.8,7.6,6,16.1,6,25.2c0,7.5-1.5,14.7-4.2,21.2
				c7.7-0.2,15.7-0.3,23,1.6c20.4,5.2,35,24,35,45.1c0,35.6-31,46.5-60.5,46.5h-134c3.5,7.3,5.4,15.4,5.4,24c0,8-1.7,15.6-4.7,22.5
				H288c26.7,0,52.9,1.6,77.2-11.9c43.6-24.2,59.6-80.7,36.7-124.6C383,244.1,346.5,230.8,307.8,230.8z M120.7,355.3
				c-21.6,0-39.2,17.6-39.2,39.2c0,21.6,17.6,39.2,39.2,39.2c13.2,0,24.9-6.6,32-16.6c4.5-6.4,7.2-14.1,7.2-22.5
				c0-9.1-3.1-17.4-8.3-24C144.4,361.2,133.3,355.3,120.7,355.3z"/>
		</g>
	</g>
</g>
</svg>
