<?xml version="1.0" encoding="utf-8"?>
<!-- Generator: Adobe Illustrator 24.0.1, SVG Export Plug-In . SVG Version: 6.00 Build 0)  -->
<svg version="1.1" id="图层_1" xmlns="http://www.w3.org/2000/svg" xmlns:xlink="http://www.w3.org/1999/xlink" x="0px" y="0px"
	 viewBox="0 0 32 32" style="enable-background:new 0 0 32 32;" xml:space="preserve">
<path d="M14.2,1.8v7.1c0,1-0.8,1.8-1.8,1.8H1.8c-1,0-1.8-0.8-1.8-1.7V1.8C0,0.8,0.8,0,1.8,0l0,0h10.7C13.4,0,14.2,0.8,14.2,1.8z
	 M12.4,14.2H1.8C0.8,14.2,0,15,0,16v14.2c0,1,0.8,1.8,1.8,1.8l0,0h10.7c1,0,1.8-0.8,1.8-1.8l0,0V16C14.2,15,13.4,14.2,12.4,14.2z
	 M30.2,21.3H19.6c-1,0-1.8,0.8-1.8,1.8l0,0v7.1c0,1,0.8,1.8,1.8,1.8l0,0h10.7c1,0,1.8-0.8,1.8-1.8l0,0v-7.1
	C32,22.1,31.2,21.3,30.2,21.3L30.2,21.3z M30.2,0H19.6c-1,0-1.8,0.8-1.8,1.8l0,0V16c0,1,0.8,1.8,1.8,1.8l0,0h10.7
	c1,0,1.8-0.8,1.8-1.8l0,0V1.8C32,0.8,31.2,0,30.2,0L30.2,0z"/>
</svg>
