<?xml version="1.0" encoding="utf-8"?>
<!-- Generator: Adobe Illustrator 24.0.1, SVG Export Plug-In . SVG Version: 6.00 Build 0)  -->
<svg version="1.1" id="图层_1" xmlns="http://www.w3.org/2000/svg" xmlns:xlink="http://www.w3.org/1999/xlink" x="0px" y="0px"
	 viewBox="0 0 32 32" style="enable-background:new 0 0 32 32;" xml:space="preserve">
<style type="text/css">
	.st0{fill:none;}
</style>
<circle class="st0" cx="10.7" cy="9.3" r="1.8"/>
<path class="st0" d="M10.7,20.8c-1,0-1.8,0.8-1.8,1.8s0.8,1.8,1.8,1.8c0.9,0,1.7-0.8,1.8-1.8C12.5,21.6,11.7,20.8,10.7,20.8z"/>
<path class="st0" d="M21.8,21.4h-6.2c-0.7,0-1.3,0.6-1.3,1.3s0.6,1.3,1.3,1.3h6.2c0.7,0,1.3-0.6,1.3-1.3S22.5,21.4,21.8,21.4z"/>
<circle class="st0" cx="10.7" cy="16" r="1.8"/>
<path class="st0" d="M21.8,14.7h-6.2c-0.7,0-1.3,0.6-1.3,1.3s0.6,1.3,1.3,1.3h6.2c0.7,0,1.3-0.6,1.3-1.3S22.5,14.7,21.8,14.7z"/>
<path class="st0" d="M21.8,8.1h-6.2c-0.7,0-1.3,0.6-1.3,1.3c0,0.7,0.6,1.3,1.3,1.3h6.2c0.7,0,1.3-0.6,1.3-1.3
	C23.1,8.7,22.5,8.1,21.8,8.1z"/>
<path d="M28.4,0H3.6C1.6,0,0,1.6,0,3.6v24.9c0,2,1.6,3.6,3.6,3.6h24.9c2,0,3.6-1.6,3.6-3.6V3.6C32,1.6,30.4,0,28.4,0z M10.7,24.4
	c-1,0-1.8-0.8-1.8-1.8s0.8-1.8,1.8-1.8s1.8,0.8,1.8,1.8C12.4,23.6,11.6,24.4,10.7,24.4z M10.7,17.8c-1,0-1.8-0.8-1.8-1.8
	s0.8-1.8,1.8-1.8s1.8,0.8,1.8,1.8S11.6,17.8,10.7,17.8z M10.7,11.1c-1,0-1.8-0.8-1.8-1.8s0.8-1.8,1.8-1.8s1.8,0.8,1.8,1.8
	S11.6,11.1,10.7,11.1z M21.8,24h-6.2c-0.7,0-1.3-0.6-1.3-1.3s0.6-1.3,1.3-1.3h6.2c0.7,0,1.3,0.6,1.3,1.3S22.5,24,21.8,24z
	 M21.8,17.3h-6.2c-0.7,0-1.3-0.6-1.3-1.3s0.6-1.3,1.3-1.3h6.2c0.7,0,1.3,0.6,1.3,1.3S22.5,17.3,21.8,17.3z M21.8,10.7h-6.2
	c-0.7,0-1.3-0.6-1.3-1.3c0-0.7,0.6-1.3,1.3-1.3h6.2c0.7,0,1.3,0.6,1.3,1.3C23.1,10.1,22.5,10.7,21.8,10.7z"/>
</svg>
