<?xml version="1.0" encoding="utf-8"?>
<!-- Generator: Adobe Illustrator 24.0.1, SVG Export Plug-In . SVG Version: 6.00 Build 0)  -->
<svg version="1.1" id="图层_1" xmlns="http://www.w3.org/2000/svg" xmlns:xlink="http://www.w3.org/1999/xlink" x="0px" y="0px"
	 viewBox="0 0 32 34.2" style="enable-background:new 0 0 32 34.2;" xml:space="preserve">
<style type="text/css">
	.st0{fill:none;}
</style>
<path class="st0" d="M15.7,11.1c-3.6,0-6.5,2.9-6.5,6.5s2.9,6.5,6.5,6.5s6.5-2.9,6.5-6.5S19.3,11.1,15.7,11.1z M15.7,21.3
	c-2,0-3.7-1.7-3.7-3.7s1.7-3.7,3.7-3.7s3.7,1.7,3.7,3.7S17.7,21.2,15.7,21.3z"/>
<g>
	<g>
		<path d="M31.2,20.4c-1.6-1.8-1.6-4.5-0.1-6.3c0.8-0.9,1.1-2.2,0.6-3.3c-0.6-1.4-1.4-2.8-2.3-4.1C28.9,5.9,28,5.5,27,5.5
			c-0.2,0-0.5,0-0.7,0.1c-0.3,0.1-0.7,0.1-1,0.1c-0.8,0-1.6-0.2-2.3-0.6c-1-0.6-1.7-1.5-2.1-2.6c-0.4-1.2-1.4-2-2.6-2.2
			C17.6,0,16.8,0,16,0s-1.5,0-2.3,0.1c-1.2,0.2-2.2,1-2.6,2.2c-0.6,1.9-2.4,3.2-4.4,3.2c-0.3,0-0.7,0-1-0.1C5.5,5.5,5.3,5.4,5,5.4
			c-1,0-1.9,0.4-2.5,1.2c-1,1.2-1.8,2.6-2.3,4C-0.2,11.9,0,13.2,0.9,14c1.6,1.8,1.6,4.4,0,6.2c-0.8,0.9-1.1,2.2-0.6,3.3
			c0.6,1.4,1.4,2.8,2.3,4c0.6,0.8,1.5,1.2,2.5,1.2c0.2,0,0.5,0,0.7-0.1c0.3-0.1,0.7-0.1,1-0.1c2,0,3.8,1.3,4.4,3.2
			c0.4,1.2,1.4,2,2.6,2.2c0.8,0.1,1.6,0.2,2.3,0.2c0.8,0,1.6-0.1,2.3-0.1c1.2-0.2,2.2-1,2.6-2.2c0.6-1.9,2.4-3.2,4.4-3.2
			c0.3,0,0.7,0,1,0.1c0.2,0,0.4,0.1,0.6,0.1c1,0,1.9-0.4,2.5-1.2c1-1.2,1.8-2.6,2.3-4C32.2,22.5,32,21.2,31.2,20.4z M15.7,24
			c-3.6,0-6.5-2.9-6.5-6.5c0-3.6,2.9-6.5,6.5-6.5c3.6,0,6.5,2.9,6.5,6.5C22.2,21.2,19.3,24,15.7,24z M15.7,13.9
			c-2,0-3.7,1.7-3.7,3.7s1.7,3.7,3.7,3.7s3.7-1.7,3.7-3.7C19.4,15.5,17.7,13.9,15.7,13.9z"/>
	</g>
</g>
</svg>
