<?xml version="1.0" encoding="utf-8"?>
<!-- Generator: Adobe Illustrator 24.0.1, SVG Export Plug-In . SVG Version: 6.00 Build 0)  -->
<svg version="1.1" id="图层_1" xmlns="http://www.w3.org/2000/svg" xmlns:xlink="http://www.w3.org/1999/xlink" x="0px" y="0px"
	 viewBox="0 0 32 32" style="enable-background:new 0 0 32 32;" xml:space="preserve">
<g>
	<g>
		<path d="M16,0C7.2,0,0,7.2,0,16s7.2,16,16,16s16-7.2,16-16C32,7.2,24.8,0,16,0z M14.4,6.4h3.2V16h-3.2V6.4z M23.9,21.4
			c-3,4.4-8.9,5.5-13.3,2.6C6.2,21,5.1,15,8,10.6l0.3-0.4v0l2.6,1.9c-1.6,2.1-1.7,5.1-0.2,7.3c1.9,3,5.9,3.8,8.9,1.9
			c3-1.9,3.8-5.9,1.9-8.9l-0.2-0.3l2.6-1.9C26.1,13.5,26.2,18,23.9,21.4z"/>
	</g>
</g>
</svg>
